<svg width="49" height="43" viewBox="0 0 49 43" fill="none" xmlns="http://www.w3.org/2000/svg">
<rect x="17" y="36" width="9.89948" height="9.89948" rx="4.94974" transform="rotate(-45 17 36)" fill="white"/>
<path d="M10.6466 31.5874C9.67026 30.611 9.67026 29.0281 10.6466 28.0518L22.3047 16.3938C23.281 15.4175 24.8639 15.4175 25.8402 16.3938V16.3938C26.8166 17.3701 26.8166 18.953 25.8402 19.9293L14.1821 31.5874C13.2058 32.5637 11.6229 32.5637 10.6466 31.5874V31.5874Z" fill="white"/>
<rect y="24.0725" width="34.0436" height="5" rx="2.5" transform="rotate(-45 0 24.0725)" fill="white"/>
<rect x="36.5439" y="34.0801" width="21.9833" height="5" rx="2.5" transform="rotate(-135 36.5439 34.0801)" fill="white"/>
<rect x="45.0723" y="27.9819" width="34.0436" height="5" rx="2.5" transform="rotate(-135 45.0723 27.9819)" fill="white"/>
</svg>
