<svg width="44" height="31" viewBox="0 0 44 31" fill="none" xmlns="http://www.w3.org/2000/svg">
<path fill-rule="evenodd" clip-rule="evenodd" d="M2.87118 20.75C1.16063 21.6751 0 23.475 0 25.5438C0 28.5572 2.46243 31 5.5 31C8.53757 31 11 28.5572 11 25.5438C11 22.7087 8.8203 20.3786 6.03267 20.1128C6.04872 19.9574 6.06771 19.7878 6.09015 19.6054C6.11309 19.5202 6.13893 19.4289 6.16793 19.3322C6.35682 18.7026 6.67062 17.8775 7.16754 17.0655C8.13944 15.4775 9.76032 13.9852 12.65 13.9852C15.5397 13.9852 17.1605 15.4775 18.1324 17.0655C18.6294 17.8775 18.9432 18.7026 19.1321 19.3322C19.2257 19.6443 19.2864 19.9009 19.3229 20.0739C19.3411 20.1602 19.3531 20.225 19.3601 20.2648L19.3652 20.295L19.3662 20.3025C17.075 20.9612 15.4 23.0585 15.4 25.5438C15.4 28.5572 17.8624 31 20.9 31C23.9376 31 26.4 28.5572 26.4 25.5438C26.4 23.0585 24.725 20.9613 22.4338 20.3025C22.4387 20.2681 22.7157 17.8034 21 15C19.6344 12.7687 16.9103 10.9125 12.65 10.9125C10.8573 10.9125 9.3755 11.3245 8.15868 11.9681C9.18983 9.67069 10.6686 7.45414 12.7794 5.81538C14.8709 4.19157 17.6608 3.07272 21.4499 3.07272C25.2391 3.07272 28.029 4.19157 30.1205 5.81538C32.2354 7.45734 33.7158 9.67934 34.7472 11.9816C34.8575 12.2276 35.5 15 35.5 15C36.5 18.5 36.5 21 36.5 21C34.7318 21.9073 33 23.4327 33 25.5438C33 28.5572 35.4624 31 38.5 31C41.5376 31 44 28.5572 44 25.5438C44 23.0443 42.3059 20.9374 39.9947 20.2914L39.9869 20.2012C39.9367 19.6302 39.846 18.8227 39.6838 17.8571C39.3606 15.9333 38.7469 13.3434 37.5776 10.7336C36.4091 8.1252 34.6583 5.4366 32.0294 3.3956C29.3772 1.33645 25.9108 1.90735e-06 21.4499 1.90735e-06C16.9891 1.90735e-06 13.5227 1.33645 10.8705 3.3956C8.24161 5.4366 6.49083 8.1252 5.32224 10.7336C4.153 13.3434 3.53928 15.9333 3.21608 17.8571C3.14497 18.2803 3.08762 18.6732 3.0414 19.0291C3.00178 19.1873 2.97016 19.3271 2.94535 19.4447C2.9195 19.5673 2.90091 19.6666 2.88828 19.7387C2.88197 19.7747 2.87713 19.804 2.87362 19.8261L2.86932 19.8538L2.86787 19.8634L2.86732 19.8672L2.86708 19.8688C2.86708 19.8688 2.86693 19.87 2.94314 19.8811L2.86687 19.8703C2.83852 20.0671 2.84914 20.2606 2.8929 20.443C2.88388 20.5589 2.87676 20.6616 2.87118 20.75ZM5.5 27.7263C4.28497 27.7263 3.3 26.7491 3.3 25.5438C3.3 24.3384 4.28497 23.3613 5.5 23.3613C6.71503 23.3613 7.7 24.3384 7.7 25.5438C7.7 26.7491 6.71503 27.7263 5.5 27.7263ZM38.5 27.7263C37.285 27.7263 36.3 26.7491 36.3 25.5438C36.3 24.3384 37.285 23.3613 38.5 23.3613C39.715 23.3613 40.7 24.3384 40.7 25.5438C40.7 26.7491 39.715 27.7263 38.5 27.7263ZM18.7 25.5438C18.7 26.7491 19.685 27.7263 20.9 27.7263C22.115 27.7263 23.1 26.7491 23.1 25.5438C23.1 24.3384 22.115 23.3613 20.9 23.3613C19.685 23.3613 18.7 24.3384 18.7 25.5438Z" fill="white"/>
</svg>
