<svg width="100" height="99" viewBox="0 0 100 99" fill="none" xmlns="http://www.w3.org/2000/svg">
<ellipse cx="50" cy="49.5" rx="50" ry="49.5" fill="#3E1792"/>
<rect x="69" y="51" width="22" height="17" fill="white"/>
<rect x="14" y="51" width="22" height="17" fill="white"/>
<rect x="42" y="51" width="22" height="17" fill="white"/>
<rect x="26" y="23" width="22" height="17" fill="white"/>
<rect x="55" y="23" width="22" height="17" fill="white"/>
<path d="M49.853 57.4779C50.1169 57.5591 50.3967 57.411 50.4779 57.147L51.8013 52.846C51.8825 52.5821 51.7344 52.3023 51.4704 52.2211C51.2065 52.1399 50.9267 52.288 50.8455 52.552L49.6692 56.3751L45.846 55.1987C45.5821 55.1175 45.3023 55.2656 45.2211 55.5296C45.1399 55.7935 45.288 56.0733 45.552 56.1545L49.853 57.4779ZM40.5581 40.2339L49.5581 57.2339L50.4419 56.7661L41.4419 39.7661L40.5581 40.2339Z" fill="white"/>
<path d="M79.8787 60.4851C80.1466 60.552 80.4181 60.3892 80.4851 60.1213L81.5765 55.7556C81.6435 55.4877 81.4806 55.2163 81.2127 55.1493C80.9448 55.0823 80.6733 55.2452 80.6063 55.5131L79.6362 59.3937L75.7556 58.4235C75.4877 58.3565 75.2163 58.5194 75.1493 58.7873C75.0823 59.0552 75.2452 59.3267 75.5131 59.3937L79.8787 60.4851ZM67.5713 40.2572L79.5713 60.2572L80.4287 59.7428L68.4287 39.7428L67.5713 40.2572Z" fill="white"/>
<line x1="27" y1="59.5" x2="50" y2="59.5" stroke="white"/>
<line x1="55" y1="59.5" x2="78" y2="59.5" stroke="white"/>
</svg>
