<svg width="40" height="39" viewBox="0 0 40 39" fill="none" xmlns="http://www.w3.org/2000/svg">
<path fill-rule="evenodd" clip-rule="evenodd" d="M20 14C21.3901 14 22.6856 13.5948 23.7748 12.896L27.8015 16.9227C26.1181 17.9854 25 19.8621 25 22C25 24.0537 26.0318 25.8664 27.6053 26.948L25.9263 31.1458C24.2386 31.6149 23 33.1628 23 35C23 37.2091 24.7909 39 27 39C29.2091 39 31 37.2091 31 35C31 33.52 30.1962 32.2277 29.0013 31.5359L30.4265 27.9729C30.6152 27.9908 30.8066 28 31 28C31.5209 28 32.0262 27.9336 32.5081 27.8089L33.9989 31.5358C32.8039 32.2276 32 33.5199 32 35C32 37.2091 33.7909 39 36 39C38.2091 39 40 37.2091 40 35C40 33.1629 38.7616 31.6151 37.074 31.1458L35.1493 26.334C36.2898 25.2418 37 23.7038 37 22C37 18.7273 34.3798 16.0666 31.1227 16.0012L25.8961 10.7747C26.5948 9.68552 27 8.39008 27 7C27 3.13401 23.866 0 20 0C16.134 0 13 3.13401 13 7C13 8.39008 13.4052 9.68552 14.1039 10.7747L8.87733 16.0012C5.62025 16.0665 3 18.7273 3 22C3 23.7039 3.71027 25.242 4.8509 26.3342L2.92626 31.1458C1.23857 31.6149 0 33.1628 0 35C0 37.2091 1.79086 39 4 39C6.20914 39 8 37.2091 8 35C8 33.52 7.19619 32.2277 6.00131 31.5359L7.49209 27.8089C7.9739 27.9336 8.4792 28 9 28C9.19352 28 9.3849 27.9908 9.57374 27.9729L10.9989 31.5358C9.80389 32.2276 9 33.5199 9 35C9 37.2091 10.7909 39 13 39C15.2091 39 17 37.2091 17 35C17 33.1629 15.7616 31.6151 14.074 31.1458L12.3948 26.9479C13.9683 25.8663 15 24.0536 15 22C15 19.8621 13.8819 17.9854 12.1985 16.9227L16.2252 12.896C17.3144 13.5948 18.6099 14 20 14ZM20 10C21.6569 10 23 8.65685 23 7C23 5.34315 21.6569 4 20 4C18.3431 4 17 5.34315 17 7C17 8.65685 18.3431 10 20 10ZM9 24C10.1046 24 11 23.1046 11 22C11 20.8954 10.1046 20 9 20C7.89543 20 7 20.8954 7 22C7 23.1046 7.89543 24 9 24ZM33 22C33 23.1046 32.1046 24 31 24C29.8954 24 29 23.1046 29 22C29 20.8954 29.8954 20 31 20C32.1046 20 33 20.8954 33 22Z" fill="white"/>
</svg>
