<svg width="40" height="38" viewBox="0 0 40 38" fill="none" xmlns="http://www.w3.org/2000/svg">
<path fill-rule="evenodd" clip-rule="evenodd" d="M22 11.6586C24.3304 10.8349 26 8.61244 26 6C26 2.68629 23.3137 0 20 0C16.6863 0 14 2.68629 14 6C14 8.61244 15.6696 10.8349 18 11.6586V13.252C14.5495 14.1401 12 17.2723 12 21C12 21.8432 12.1305 22.6559 12.3723 23.4191L8.18478 26.4102C7.50775 26.1454 6.77085 26 6 26C2.68629 26 0 28.6863 0 32C0 35.3137 2.68629 38 6 38C9.31371 38 12 35.3137 12 32C12 30.958 11.7344 29.978 11.2671 29.1241L14.5033 26.8126C15.9366 28.1685 17.8712 29 20 29C21.9141 29 23.6713 28.3277 25.0482 27.2065L28.4757 29.6547C28.1694 30.3751 28 31.1678 28 32C28 35.3137 30.6863 38 34 38C37.3137 38 40 35.3137 40 32C40 28.6863 37.3137 26 34 26C32.991 26 32.0402 26.2491 31.2056 26.6891L27.4235 23.9875C27.7953 23.0645 28 22.0561 28 21C28 17.2723 25.4505 14.1401 22 13.252V11.6586ZM22 6C22 7.10457 21.1046 8 20 8C18.8954 8 18 7.10457 18 6C18 4.89543 18.8954 4 20 4C21.1046 4 22 4.89543 22 6ZM20 25C22.2091 25 24 23.2091 24 21C24 18.7909 22.2091 17 20 17C17.7909 17 16 18.7909 16 21C16 23.2091 17.7909 25 20 25ZM34 34C35.1046 34 36 33.1046 36 32C36 30.8954 35.1046 30 34 30C32.8954 30 32 30.8954 32 32C32 33.1046 32.8954 34 34 34ZM8 32C8 33.1046 7.10457 34 6 34C4.89543 34 4 33.1046 4 32C4 30.8954 4.89543 30 6 30C7.10457 30 8 30.8954 8 32Z" fill="white"/>
</svg>
