<svg width="100" height="99" viewBox="0 0 100 99" fill="none" xmlns="http://www.w3.org/2000/svg">
<ellipse cx="50" cy="49.5" rx="50" ry="49.5" fill="#3E1792"/>
<path d="M14.1309 66.888C14.3491 66.552 14.6981 66.531 15.1782 66.825C26.0872 72.915 37.9564 75.96 50.7855 75.96C59.3381 75.96 67.7818 74.427 76.1164 71.361C76.3345 71.277 76.6509 71.151 77.0655 70.983C77.48 70.815 77.7745 70.689 77.9491 70.605C78.6036 70.353 79.1163 70.479 79.4873 70.983C79.8581 71.487 79.7382 71.949 79.1273 72.369C78.3418 72.915 77.3381 73.545 76.1164 74.259C72.3636 76.401 68.1745 78.06 63.5491 79.236C58.9236 80.412 54.4072 81 50 81C43.1927 81 36.7563 79.8555 30.6909 77.5665C24.6254 75.2775 19.1927 72.054 14.3927 67.896C14.1309 67.686 14 67.476 14 67.266C14 67.14 14.0436 67.014 14.1309 66.888ZM33.8327 48.933C33.8327 46.035 34.5745 43.557 36.0582 41.499C37.5418 39.441 39.5709 37.887 42.1455 36.837C44.5018 35.871 47.4036 35.178 50.8509 34.758C52.0291 34.632 53.9491 34.464 56.6109 34.254V33.183C56.6109 30.495 56.3054 28.689 55.6945 27.765C54.7782 26.505 53.3382 25.875 51.3745 25.875H50.8509C49.4109 26.001 48.1673 26.442 47.12 27.198C46.0727 27.954 45.3963 29.004 45.0909 30.348C44.9163 31.188 44.48 31.671 43.7818 31.797L36.2545 30.915C35.5127 30.747 35.1418 30.369 35.1418 29.781C35.1418 29.655 35.1636 29.508 35.2073 29.34C35.9491 25.602 37.7709 22.83 40.6727 21.024C43.5745 19.218 46.9672 18.21 50.8509 18H52.4873C57.4618 18 61.3454 19.239 64.1382 21.717C64.5762 22.1389 64.981 22.5917 65.3491 23.0715C65.72 23.5545 66.0145 23.985 66.2327 24.363C66.4509 24.741 66.6472 25.287 66.8218 26.001C66.9963 26.715 67.1272 27.2085 67.2145 27.4815C67.3018 27.7545 67.3672 28.3425 67.4109 29.2455C67.4545 30.1485 67.4764 30.684 67.4764 30.852V46.098C67.4764 47.19 67.64 48.1875 67.9673 49.0905C68.2945 49.9935 68.6109 50.6445 68.9164 51.0435C69.2218 51.4425 69.7236 52.083 70.4218 52.965C70.6836 53.343 70.8145 53.679 70.8145 53.973C70.8145 54.309 70.64 54.603 70.2909 54.855C66.669 57.879 64.7054 59.517 64.4 59.769C63.8764 60.147 63.2436 60.189 62.5018 59.895C61.8909 59.391 61.3564 58.908 60.8982 58.446C60.44 57.984 60.1127 57.648 59.9164 57.438C59.72 57.228 59.4036 56.8185 58.9673 56.2095C58.5309 55.6005 58.2254 55.191 58.0509 54.981C55.6072 57.543 53.2073 59.139 50.8509 59.769C49.3672 60.189 47.5345 60.399 45.3527 60.399C41.9927 60.399 39.2327 59.4015 37.0727 57.4065C34.9127 55.4115 33.8327 52.587 33.8327 48.933ZM45.0909 47.673C45.0909 49.311 45.5164 50.6235 46.3673 51.6105C47.2182 52.5975 48.3636 53.091 49.8036 53.091C49.9345 53.091 50.12 53.07 50.36 53.028C50.6 52.986 50.7636 52.965 50.8509 52.965C52.6836 52.503 54.1018 51.369 55.1055 49.563C55.5854 48.765 55.9454 47.8935 56.1855 46.9485C56.4254 46.0035 56.5563 45.237 56.5782 44.649C56.6 44.061 56.6109 43.095 56.6109 41.751V40.176C54.08 40.176 52.16 40.344 50.8509 40.68C47.0109 41.73 45.0909 44.061 45.0909 47.673ZM72.5818 67.959C72.6691 67.791 72.8 67.623 72.9745 67.455C74.0654 66.741 75.1127 66.258 76.1164 66.006C77.7745 65.586 79.3891 65.355 80.96 65.313C81.3963 65.271 81.8109 65.292 82.2036 65.376C84.1673 65.544 85.3455 65.859 85.7382 66.321C85.9127 66.573 86 66.951 86 67.455V67.896C86 69.366 85.5854 71.0985 84.7564 73.0935C83.9272 75.0885 82.7709 76.695 81.2873 77.913C81.069 78.081 80.8727 78.165 80.6982 78.165C80.6109 78.165 80.5236 78.144 80.4364 78.102C80.1745 77.976 80.1091 77.745 80.24 77.409C81.8545 73.755 82.6618 71.214 82.6618 69.786C82.6618 69.324 82.5745 68.988 82.4 68.778C81.9636 68.274 80.7418 68.022 78.7345 68.022C77.9927 68.022 77.12 68.064 76.1164 68.148C75.0254 68.274 74.0218 68.4 73.1055 68.526C72.8436 68.526 72.6691 68.484 72.5818 68.4C72.4945 68.316 72.4727 68.232 72.5164 68.148C72.5164 68.106 72.5382 68.043 72.5818 67.959Z" fill="white"/>
</svg>
