<svg width="48" height="48" viewBox="0 0 48 48" fill="none" xmlns="http://www.w3.org/2000/svg">
<g clip-path="url(#clip0)">
<path d="M28 36C28 37.1046 28.8954 38 30 38H42C43.1046 38 44 37.1046 44 36C44 34.8954 43.1046 34 42 34H30C28.8954 34 28 34.8954 28 36ZM28 25C28 26.1046 28.8954 27 30 27H42C43.1046 27 44 26.1046 44 25C44 23.8954 43.1046 23 42 23H30C28.8954 23 28 23.8954 28 25ZM28 14C28 15.1046 28.8954 16 30 16H42C43.1046 16 44 15.1046 44 14C44 12.8954 43.1046 12 42 12H30C28.8954 12 28 12.8954 28 14ZM4 25C4 17.84 9.84 12 17 12H18V8L24 14L18 20V16H17C12 16 8 20 8 25C8 30 12 34 17 34H22C23.1046 34 24 34.8954 24 36C24 37.1046 23.1046 38 22 38H17C9.84 38 4 32.16 4 25Z" fill="white"/>
</g>
<defs>
<clipPath id="clip0">
<path d="M0 0H48V48H0V0Z" fill="white"/>
</clipPath>
</defs>
</svg>
