<svg width="36" height="36" viewBox="0 0 36 36" fill="none" xmlns="http://www.w3.org/2000/svg">
<path fill-rule="evenodd" clip-rule="evenodd" d="M11 6C11 2.68629 13.6863 0 17 0H30C33.3137 0 36 2.68629 36 6V19C36 22.3137 33.3137 25 30 25H25V30C25 33.3137 22.3137 36 19 36H6C2.68629 36 0 33.3137 0 30V17C0 13.6863 2.68629 11 6 11H11V6ZM17 4H30C31.1046 4 32 4.89543 32 6V19C32 20.1046 31.1046 21 30 21H17C15.8954 21 15 20.1046 15 19V6C15 4.89543 15.8954 4 17 4ZM11 15H6C4.89543 15 4 15.8954 4 17V30C4 31.1046 4.89543 32 6 32H19C20.1046 32 21 31.1046 21 30V25H17C13.6863 25 11 22.3137 11 19V15Z" fill="white"/>
</svg>
