<svg width="85" height="75" viewBox="0 0 85 75" fill="none" xmlns="http://www.w3.org/2000/svg">
<g clip-path="url(#clip0_301:2)">
<path d="M77.9166 56.4219V64.1031C77.9166 70.1188 61.4302 75 42.5 75C23.5733 75 7.08331 70.1188 7.08331 64.1031V56.4219C15.6471 61.8531 31.8927 63.4719 42.5 63.4719C53.1462 63.4719 69.3741 61.8375 77.9166 56.4219ZM42.5 45.7687C31.8537 45.7687 15.6258 44.1344 7.08331 38.7188V46.325C7.08331 52.3438 23.5733 57.2219 42.5 57.2219C61.4302 57.2219 77.9166 52.3406 77.9166 46.325V38.7188C69.3529 44.15 53.1073 45.7687 42.5 45.7687ZM42.5 0C23.5733 0 7.08331 4.88125 7.08331 10.9C7.08331 16.9187 23.5733 21.7969 42.5 21.7969C61.4302 21.7969 77.9166 16.9156 77.9166 10.9C77.9166 4.88125 61.4302 0 42.5 0V0ZM42.5 28.0469C31.8537 28.0469 15.6258 26.4125 7.08331 20.9969V28.6219C7.08331 34.6406 23.5733 39.5187 42.5 39.5187C61.4302 39.5187 77.9166 34.6375 77.9166 28.6219V20.9969C69.3529 26.4281 53.1073 28.0469 42.5 28.0469Z" fill="white"/>
</g>
<defs>
<clipPath id="clip0_301:2">
<rect width="85" height="75" fill="white"/>
</clipPath>
</defs>
</svg>
