<svg width="44" height="31" viewBox="0 0 44 31" fill="none" xmlns="http://www.w3.org/2000/svg">
<path fill-rule="evenodd" clip-rule="evenodd" d="M0 25.5438C0 23.475 1.16063 21.6751 2.87118 20.75C2.87676 20.6616 2.88388 20.5589 2.8929 20.443C2.84914 20.2606 2.83852 20.0671 2.86687 19.8703L2.94314 19.8811C2.86693 19.87 2.86704 19.8691 2.86708 19.8688L2.86732 19.8672L2.86787 19.8634L2.86932 19.8538L2.87362 19.8261C2.87713 19.804 2.88197 19.7747 2.88828 19.7387C2.90091 19.6666 2.9195 19.5673 2.94535 19.4447C2.97016 19.3271 3.00178 19.1873 3.0414 19.0291C3.08762 18.6732 3.14497 18.2803 3.21608 17.8571C3.53928 15.9333 4.153 13.3434 5.32224 10.7336C6.49083 8.1252 8.24161 5.4366 10.8705 3.3956C13.5227 1.33645 16.9891 0 21.4499 0C25.9108 0 29.3772 1.33645 32.0294 3.3956C34.6583 5.4366 36.4091 8.1252 37.5776 10.7336C38.7469 13.3434 39.3606 15.9333 39.6838 17.8571C39.846 18.8227 39.9366 19.6302 39.9869 20.2012L39.9947 20.2914C42.3059 20.9374 44 23.0443 44 25.5438C44 28.5572 41.5376 31 38.5 31C35.4624 31 33 28.5572 33 25.5438C33 23.4327 34.2086 21.6016 35.9768 20.6943C35.9109 20.5423 35.8689 20.377 35.8557 20.2028L22.445 20.1984L35.8554 20.1996C35.8549 20.1936 35.8537 20.1809 35.8517 20.1618C35.8477 20.1237 35.8403 20.0608 35.8282 19.9766C35.8039 19.8077 35.7607 19.5561 35.6872 19.2498C35.5387 18.6312 35.2747 17.8235 34.8179 17.0304C33.9435 15.5124 32.3501 13.9852 29.15 13.9852C25.9499 13.9852 24.3565 15.5124 23.4821 17.0304C23.0253 17.8235 22.7613 18.6312 22.6128 19.2498C22.5393 19.5561 22.4961 19.8077 22.4718 19.9766C22.4597 20.0608 22.4523 20.1237 22.4483 20.1618C22.4472 20.1724 22.4463 20.1811 22.4457 20.1877C22.4455 20.1913 22.4452 20.1948 22.445 20.1984C22.4425 20.2334 22.4387 20.2681 22.4338 20.3025C24.725 20.9613 26.4 23.0585 26.4 25.5438C26.4 28.5572 23.9376 31 20.9 31C17.8624 31 15.4 28.5572 15.4 25.5438C15.4 23.0584 17.075 20.9612 19.3662 20.3025C19.3659 20.3 19.3655 20.2975 19.3652 20.295L19.3601 20.2648C19.3531 20.225 19.3411 20.1602 19.3229 20.0739C19.2864 19.9009 19.2257 19.6443 19.1321 19.3322C18.9432 18.7026 18.6294 17.8775 18.1324 17.0655C17.1605 15.4775 15.5397 13.9852 12.65 13.9852C9.76032 13.9852 8.13944 15.4775 7.16754 17.0655C6.67062 17.8775 6.35682 18.7026 6.16793 19.3322C6.13893 19.4289 6.11309 19.5202 6.09015 19.6054C6.06771 19.7878 6.04872 19.9574 6.03267 20.1128C8.8203 20.3786 11 22.7087 11 25.5438C11 28.5572 8.53757 31 5.5 31C2.46243 31 0 28.5572 0 25.5438ZM20.797 15.4987C22.1238 13.1998 24.6548 10.9125 29.15 10.9125C31.7116 10.9125 33.6353 11.6552 35.0618 12.7196C34.9622 12.4738 34.8575 12.2276 34.7472 11.9815C33.7158 9.67934 32.2354 7.45734 30.1205 5.81538C28.029 4.19157 25.2391 3.07272 21.4499 3.07272C17.6608 3.07272 14.8709 4.19157 12.7794 5.81538C10.6686 7.45414 9.18983 9.67069 8.15868 11.9681C9.3755 11.3245 10.8573 10.9125 12.65 10.9125C16.9103 10.9125 19.4144 13.2395 20.78 15.4708C20.7857 15.4801 20.7914 15.4894 20.797 15.4987ZM5.5 27.7263C4.28497 27.7263 3.3 26.7491 3.3 25.5438C3.3 24.3384 4.28497 23.3613 5.5 23.3613C6.71503 23.3613 7.7 24.3384 7.7 25.5438C7.7 26.7491 6.71503 27.7263 5.5 27.7263ZM38.5 27.7263C37.285 27.7263 36.3 26.7491 36.3 25.5438C36.3 24.3384 37.285 23.3613 38.5 23.3613C39.715 23.3613 40.7 24.3384 40.7 25.5438C40.7 26.7491 39.715 27.7263 38.5 27.7263ZM18.7 25.5438C18.7 26.7491 19.685 27.7263 20.9 27.7263C22.115 27.7263 23.1 26.7491 23.1 25.5438C23.1 24.3384 22.115 23.3613 20.9 23.3613C19.685 23.3613 18.7 24.3384 18.7 25.5438Z" fill="white"/>
</svg>
